<?xml version="1.0" encoding="UTF-8" standalone="no"?>
<svg width="120px" height="28px" viewBox="0 0 120 28" version="1.1" xmlns="http://www.w3.org/2000/svg" xmlns:xlink="http://www.w3.org/1999/xlink">
    <!-- Generator: Sketch 40.2 (33826) - http://www.bohemiancoding.com/sketch -->
    <title>Group 2</title>
    <desc>Created with Sketch.</desc>
    <defs></defs>
    <g id="yeni" stroke="none" stroke-width="1" fill="none" fill-rule="evenodd">
        <g id="iPhone-7" transform="translate(-80.000000, -91.000000)">
            <g id="Group-2" transform="translate(81.000000, 91.000000)">
                <path d="M0.456140351,14 L43,14" id="Line" stroke="#CFCFCF" stroke-width="2" stroke-linecap="square" stroke-dasharray="6"></path>
                <path d="M75.4561404,14 L118,14" id="Line" stroke="#CFCFCF" stroke-width="2" stroke-linecap="square" stroke-dasharray="6"></path>
                <g id="airplane" transform="translate(45.228070, 0.000000)">
                    <g id="Capa_1">
                        <g id="Group">
                            <path d="M0.737214802,14.528531 L3.67206782,15.0077522 L3.68518473,14.9782655 C3.97953708,15.0528496 4.31679729,15.0810973 4.67517794,15.0810973 L14.9008097,15.4104071 L14.9001427,15.4644248 L19.8836792,15.6817345 L19.8834569,15.6512566 L24.4410273,15.8707965 C25.3654359,15.8695575 26.1404452,15.1688142 26.3652113,14.2170619 C26.421236,13.980177 26.445469,13.6704425 26.4239039,13.4268673 C26.3236373,12.3056283 25.4761516,11.4282124 24.4421389,11.4284602 L19.8850131,11.6467611 L19.8850131,11.6162832 L14.9001427,11.8172389 L14.900365,11.8430088 L14.9005874,11.8799292 L4.67628955,12.2055221 C4.2801144,12.2050265 3.91261861,12.2355044 3.59936901,12.3279292 L3.56935574,12.2669735 L0.737437122,12.9104779 C0.751887955,14.5718938 0.738548725,12.3507257 0.737214802,14.528531 L0.737214802,14.528531 Z" id="Shape" fill="#21A58D"></path>
                            <polygon id="Shape" fill="#21A58D" points="18.0839947 7.74410619 16.6475819 4.83507965 16.6531399 4.83458407 15.9972944 3.51511504 15.9941819 3.51511504 14.2647507 0.0175929204 10.6878361 0.0166017699 14.9012543 11.3751858 14.8974749 11.8779469 19.8847908 11.6440354 19.8847908 11.3774159 18.7400625 9.06506195 18.7536241 9.06506195 18.0984455 7.74435398"></polygon>
                            <polygon id="Shape" fill="#21A58D" points="19.8916827 15.6487788 14.8976972 15.4101593 14.8999204 15.816531 10.6811664 27.9561416 14.2585257 27.9561416 15.5568775 25.1593628 15.5686605 25.1588673 16.2018293 23.8366726 16.172483 23.8374159 16.1675919 23.8369204 17.8207672 20.2715044 17.8381082 20.2717522 18.4552699 18.9507965 18.4328156 18.9500531 19.8832346 15.8192566"></polygon>
                            <polygon id="Shape" fill="#21A58D" points="1.7725614 8.6279646 0.00333480761 8.15518584 0.737881763 12.8936283 0.737437122 12.9104779 3.60781719 12.3167788"></polygon>
                            <polygon id="Shape" fill="#21A58D" points="0.737659443 14.5590088 0 19.5881062 1.76989356 19.1155752 3.69496683 14.9827257 0.737214802 14.528531"></polygon>
                            <path d="M18.1769247,25.1601062 C18.5039581,25.160354 18.7685195,24.864 18.7680749,24.4975221 C18.7680749,24.1345133 18.5046251,23.8381593 18.1773693,23.8384071 L16.171816,23.8356814 L15.5686605,25.159115 L18.1769247,25.1601062 L18.1769247,25.1601062 Z" id="Shape" fill="#21A58D"></path>
                            <path d="M20.5386354,18.9505487 L18.4363727,18.9500531 L17.817877,20.276708 L20.5388577,20.2722478 C20.864335,20.2724956 21.1268955,19.975646 21.1266732,19.6111504 C21.1268955,19.247646 20.8647796,18.951292 20.5386354,18.9505487 L20.5386354,18.9505487 Z" id="Shape" fill="#21A58D"></path>
                            <path d="M20.5413033,7.74435398 L18.0824384,7.74286726 L18.7462875,9.06481416 L20.5410809,9.06506195 C20.8667805,9.06506195 21.1288964,8.76920354 21.1291187,8.40247788 C21.1297856,8.03773451 20.8674474,7.74484956 20.5413033,7.74435398 L20.5413033,7.74435398 Z" id="Shape" fill="#21A58D"></path>
                            <path d="M18.5886622,4.83631858 C18.9154734,4.83582301 19.1820357,4.53847788 19.1813687,4.17546903 C19.1820357,3.81047788 18.9161404,3.51511504 18.5884399,3.51561062 L15.9972944,3.51511504 L16.651139,4.84152212 L18.5886622,4.83631858 L18.5886622,4.83631858 Z" id="Shape" fill="#43B39F"></path>
                        </g>
                    </g>
                </g>
            </g>
        </g>
    </g>
</svg>